# xmcd
# 
# Track frame offsets:
#     150
#     14577
#     28717
#     44202
#     57735
#     72255
#     87517
#     100912
#     115040
#     128600
#     142195
#     154775
#     169165
#     182312
#     197442
# 
# Disc length: 2835
# 
# Revision: 1
# Processed by: cddbd v1.5.2PL0 Copyright (c) Steve Scherf et al.
# Submitted via: BonkEnc v1.0.15
# 
DISCID=d50b110f
DTITLE=Various Artist - The Man I Love - The Life and The Time of Robert Johnson
DYEAR=0
DGENRE=Blues
TTITLE0=Gus Cannon - Poor Boy Long Way From Home
TTITLE1=Hambone Willie Newburn - Roll And Tumble Blues
TTITLE2=Jimmy Rodgers - Mississippi Moon
TTITLE3=Skip James - The Devil Got My Woman
TTITLE4=Charley Patton - Moon Going Down
TTITLE5=Tommy Johnson - Big Road Blues
TTITLE6=Willie Brown - Future Blues
TTITLE7=Son House - My Black Mama
TTITLE8=Lonnie Johnson - Long Black Train
TTITLE9=Lonnie Johnson - Hot Fingers
TTITLE10=Peetie Wheatstraw - Gangstar's Blues
TTITLE11=Leroy Carr - Six Cold Feet In The Ground
TTITLE12=Robert Lockwood Jr. - Take A little Walk With Me
TTITLE13=Anita O'Day - "Murder" He Said
TTITLE14=Fats Waller - Jitterburg Waltz
EXTD=Blues and Soul Records Vol.35
EXTT0=
EXTT1=
EXTT2=
EXTT3=
EXTT4=
EXTT5=
EXTT6=
EXTT7=
EXTT8=
EXTT9=
EXTT10=
EXTT11=
EXTT12=
EXTT13=
EXTT14=
PLAYORDER=
